<?xml version="1.0"?>
<svg width="640" height="480" xmlns="http://www.w3.org/2000/svg" xmlns:svg="http://www.w3.org/2000/svg">
 <!-- Created with SVG-edit - https://github.com/SVG-Edit/svgedit-->
 <g class="layer">
  <title>Layer 1</title>
  <ellipse cx="235.500003" cy="171.999999" fill="#78a9db" id="svg_8" rx="141.000003" ry="52.500002" stroke-dasharray="null" stroke-linecap="null" stroke-linejoin="null" stroke-width="5"/>
  <text fill="#ffffff" font-family="Monospace" font-size="24" font-style="italic" id="svg_10" stroke-dasharray="null" stroke-linecap="null" stroke-linejoin="null" stroke-width="0" text-anchor="middle" transform="matrix(9.28186 0 0 4.18732 -1878.52 -636.239)" x="227.603602" xml:space="preserve" y="199.567616">IB</text>
  <polygon cx="176.5" cy="267.5" fill="#ffffff" id="svg_11" orient="point" point="5" r="0" r2="0" shape="star" strokeWidth="5" strokecolor="none"/>
  <polygon cx="247.5" cy="283.5" fill="#ffffff" id="svg_12" orient="point" point="5" r="0" r2="0" shape="star" strokeWidth="null" strokecolor="none"/>
  <polygon cx="428.5" cy="297.5" fill="#000000" id="svg_13" orient="point" point="5" points="172,179.39181518554688 174.10256958007812,185.3045654296875 180.5050048828125,185.43215942382812 175.40200805664062,189.21395874023438 177.25640869140625,195.20556640625 172,191.6300048828125 166.74359130859375,195.20556640625 168.59799194335938,189.21395874023438 163.4949951171875,185.43215942382812 169.89743041992188,185.3045654296875 172,179.39181518554688 174.10256958007812,185.3045654296875 " r="2.108185" r2="0.843274" shape="star" stroke-width="null" strokeWidth="null" strokecolor="none"/>
  <polygon cx="428.5" cy="297.5" fill="#000000" id="svg_14" orient="point" point="5" points="256.5,179.5931396484375 258.6025695800781,185.505859375 265.0050048828125,185.63348388671875 259.9020080566406,189.41525268554688 261.75640869140625,195.40689086914062 256.5,191.831298828125 251.24359130859375,195.40689086914062 253.09799194335938,189.41525268554688 247.9949951171875,185.63348388671875 254.39743041992188,185.505859375 256.5,179.5931396484375 258.6025695800781,185.505859375 " r="2.108185" r2="0.843274" shape="star" stroke-width="null" strokeWidth="null" strokecolor="none"/>
  <polygon cx="428.5" cy="297.5" fill="#000000" id="svg_15" orient="point" point="5" points="276.5,132.5931396484375 278.6025695800781,138.505859375 285.0050048828125,138.63348388671875 279.9020080566406,142.41525268554688 281.75640869140625,148.40689086914062 276.5,144.831298828125 271.24359130859375,148.40689086914062 273.0979919433594,142.41525268554688 267.9949951171875,138.63348388671875 274.3974304199219,138.505859375 276.5,132.5931396484375 278.6025695800781,138.505859375 " r="2.108185" r2="0.843274" shape="star" stroke-width="null" strokeWidth="null" strokecolor="none"/>
  <polygon cx="428.5" cy="297.5" fill="#000000" id="svg_16" orient="point" point="5" points="128.5,183.59312438964844 130.60256958007812,189.50587463378906 137.0050048828125,189.6334686279297 131.90200805664062,193.41526794433594 133.75640869140625,199.40687561035156 128.5,195.83131408691406 123.24359130859375,199.40687561035156 125.09799194335938,193.41526794433594 119.9949951171875,189.6334686279297 126.39743041992188,189.50587463378906 128.5,183.59312438964844 130.60256958007812,189.50587463378906 " r="2.108185" r2="0.843274" shape="star" stroke-width="null" strokeWidth="null" strokecolor="none"/>
  <polygon cx="428.5" cy="297.5" fill="#000000" id="svg_17" orient="point" point="5" points="266.5,154.59312438964844 268.6025695800781,160.50587463378906 275.0050048828125,160.6334686279297 269.9020080566406,164.41526794433594 271.75640869140625,170.40687561035156 266.5,166.83131408691406 261.24359130859375,170.40687561035156 263.0979919433594,164.41526794433594 257.9949951171875,160.6334686279297 264.3974304199219,160.50587463378906 266.5,154.59312438964844 268.6025695800781,160.50587463378906 " r="2.108185" r2="0.843274" shape="star" stroke-width="null" strokeWidth="null" strokecolor="none"/>
  <polygon cx="428.5" cy="297.5" fill="#000000" id="svg_18" orient="point" point="5" points="339.5,139.59312438964844 341.6025695800781,145.50587463378906 348.0050048828125,145.6334686279297 342.9020080566406,149.41526794433594 344.75640869140625,155.40687561035156 339.5,151.83131408691406 334.24359130859375,155.40687561035156 336.0979919433594,149.41526794433594 330.9949951171875,145.6334686279297 337.3974304199219,145.50587463378906 339.5,139.59312438964844 341.6025695800781,145.50587463378906 " r="2.108185" r2="0.843274" shape="star" stroke-width="null" strokeWidth="null" strokecolor="none"/>
  <polygon cx="428.5" cy="297.5" fill="#000000" id="svg_19" orient="point" point="5" points="181.5,141.59312438964844 183.60256958007812,147.50587463378906 190.0050048828125,147.6334686279297 184.90200805664062,151.41526794433594 186.75640869140625,157.40687561035156 181.5,153.83131408691406 176.24359130859375,157.40687561035156 178.09799194335938,151.41526794433594 172.9949951171875,147.6334686279297 179.39743041992188,147.50587463378906 181.5,141.59312438964844 183.60256958007812,147.50587463378906 " r="2.108185" r2="0.843274" shape="star" stroke-width="null" strokeWidth="null" strokecolor="none"/>
  <polygon cx="428.5" cy="297.5" fill="#56aaff" id="svg_20" orient="point" point="5" points="101.5,147.5931396484375 110.27740478515625,162.10549926757812 137.0050048828125,162.41873168945312 115.7020263671875,171.70083618164062 123.44342041015625,186.40689086914062 101.5,177.630859375 79.55657958984375,186.40689086914062 87.2979736328125,171.70083618164062 65.9949951171875,162.41873168945312 92.72259521484375,162.10549926757812 101.5,147.5931396484375 110.27740478515625,162.10549926757812 " r="2.108185" r2="0.843274" shape="star" stroke-width="null" strokeWidth="null" strokecolor="none"/>
 </g>
</svg>